<?xml version="1.0" encoding="utf-8"?>
<!-- Generated by IcoMoon.io -->
<!DOCTYPE svg PUBLIC "-//W3C//DTD SVG 1.1//EN" "http://www.w3.org/Graphics/SVG/1.1/DTD/svg11.dtd">
<svg version="1.1" xmlns="http://www.w3.org/2000/svg" xmlns:xlink="http://www.w3.org/1999/xlink" width="25" height="32" viewBox="0 0 25 32">
<path fill="#000" d="M12.351 0l-12.351 1.378v23.17l12.351 7.417v0.035l12.353-7.452v-23.073l-12.353-1.475zM22.755 23.425l-10.403 6.269v-6.991l-6.029-2.706v-0.020l6.033-2.666v-0.019h0.002v0.010l6.035 2.664v-1.168l-6.035-2.663v0.010h-0.002v-0.003l-6.034 2.667v-1.169l5.537-2.447-1.312-0.588-4.225 1.868v-1.168l2.914-1.288-1.312-0.588-1.602 0.708v-1.168l0.291-0.128-3.531-1.586 9.271-4.021v-5.262l10.403 1.251v20.202z"></path>
<path fill="#000" d="M18.392 16.462l-4.232-1.872-1.314 0.589 5.546 2.451z"></path>
<path fill="#000" d="M18.392 14.125l-1.604-0.708-1.314 0.587 2.918 1.289z"></path>
</svg>
