<?xml version="1.0" encoding="utf-8"?>
<!-- Generated by IcoMoon.io -->
<!DOCTYPE svg PUBLIC "-//W3C//DTD SVG 1.1//EN" "http://www.w3.org/Graphics/SVG/1.1/DTD/svg11.dtd">
<svg version="1.1" xmlns="http://www.w3.org/2000/svg" xmlns:xlink="http://www.w3.org/1999/xlink" width="32" height="32" viewBox="0 0 32 32">
<path fill="#000" d="M16.044 0l-12.28 1.37v23.035l12.28 7.374v0.035l12.281-7.409v-22.939l-12.281-1.466zM26.388 23.289l-10.343 6.232v-6.951l-5.994-2.69v-0.020l5.998-2.65v-0.019h0.002v0.010l6 2.648v-1.161l-6-2.648v0.010h-0.002v-0.003l-5.999 2.651v-1.162l5.505-2.433-1.304-0.584-4.2 1.857v-1.161l2.897-1.281-1.304-0.584-1.592 0.704v-1.161l0.289-0.127-3.511-1.576 9.217-3.998v-5.231l10.343 1.243v20.085z"></path>
<path fill="#000" d="M22.050 16.367l-4.207-1.861-1.306 0.585 5.513 2.437z"></path>
<path fill="#000" d="M22.050 14.043l-1.594-0.704-1.306 0.584 2.901 1.282z"></path>
</svg>
