<?xml version="1.0" encoding="utf-8"?>
<!-- Generated by IcoMoon.io -->
<!DOCTYPE svg PUBLIC "-//W3C//DTD SVG 1.1//EN" "http://www.w3.org/Graphics/SVG/1.1/DTD/svg11.dtd">
<svg version="1.1" xmlns="http://www.w3.org/2000/svg" xmlns:xlink="http://www.w3.org/1999/xlink" width="28" height="32" viewBox="0 0 28 32">
<path fill="#000" d="M0 0h27.793v32l-13.896-5.145-13.896 5.145v-32zM21.554 19.138c-0.258 0-0.544-0.006-0.857-0.019-0.313-0.015-0.543-0.055-0.69-0.124-0.241-0.11-0.418-0.278-0.535-0.502-0.114-0.225-0.173-0.526-0.173-0.913 0-0.421 0.019-1.295 0.059-2.628 0.037-1.33 0.058-2.479 0.058-3.45 0-0.918-0.156-1.664-0.47-2.234-0.314-0.572-0.736-1.006-1.268-1.308-0.558-0.309-1.185-0.513-1.881-0.611-0.694-0.099-1.46-0.15-2.292-0.15-0.601 0-1.253 0.073-1.957 0.213-0.704 0.142-1.326 0.34-1.867 0.6-0.549 0.249-1.014 0.565-1.396 0.946s-0.573 0.813-0.573 1.293c0 0.557 0.186 1.012 0.556 1.359 0.37 0.345 0.917 0.52 1.639 0.52 0.509 0 0.884-0.046 1.13-0.141 0.245-0.095 0.467-0.228 0.664-0.4 0.149-0.127 0.259-0.303 0.336-0.52 0.077-0.219 0.117-0.401 0.117-0.548 0-0.327-0.061-0.664-0.182-1.017-0.12-0.352-0.194-0.613-0.219-0.785 0.155-0.111 0.358-0.221 0.612-0.329 0.252-0.108 0.569-0.162 0.946-0.162 0.421 0 0.76 0.096 1.018 0.284 0.258 0.189 0.446 0.42 0.567 0.696 0.111 0.241 0.184 0.536 0.219 0.889 0.033 0.35 0.051 0.634 0.051 0.85v1.234c-0.501 0.241-1.29 0.513-2.374 0.82-1.083 0.305-2.012 0.599-2.785 0.882-0.404 0.154-0.776 0.322-1.117 0.504-0.338 0.182-0.637 0.407-0.896 0.684-0.283 0.3-0.503 0.646-0.657 1.036-0.156 0.391-0.232 0.867-0.232 1.426 0 0.972 0.352 1.751 1.058 2.341 0.704 0.589 1.556 0.882 2.553 0.882 0.671 0 1.192-0.047 1.567-0.141 0.374-0.095 0.765-0.238 1.168-0.424 0.309-0.148 0.6-0.324 0.871-0.528 0.271-0.206 0.553-0.456 0.845-0.748h0.076c0.181 0.584 0.518 1.032 1.015 1.346 0.497 0.313 1.273 0.468 2.327 0.468 0.573 0 1.118-0.068 1.631-0.205s0.958-0.288 1.337-0.45v-0.94zM15.114 17.745c-0.232 0.283-0.501 0.521-0.806 0.714-0.306 0.196-0.695 0.29-1.17 0.29-0.448 0-0.825-0.149-1.13-0.449-0.307-0.302-0.46-0.789-0.46-1.458 0-0.508 0.090-0.95 0.272-1.324 0.181-0.373 0.431-0.682 0.75-0.922 0.3-0.233 0.689-0.454 1.162-0.665 0.473-0.211 0.952-0.397 1.435-0.561l-0.052 4.375z"></path>
</svg>
