<svg style="position: absolute; width: 0; height: 0; overflow: hidden;" version="1.1" xmlns="http://www.w3.org/2000/svg" xmlns:xlink="http://www.w3.org/1999/xlink">
<defs>
<symbol id="icon_close" viewBox="0 0 32 32">
<title>icon_close</title>
<path class="path1" fill="var(--color1, #fff)" d="M16 0c-8.8 0-16 7.2-16 16s7.2 16 16 16c8.8 0 16-7.2 16-16s-7.2-16-16-16zM22.971 21.143l-0.343 1.486-1.486 0.343-5.143-5.143-5.029 5.143-1.6-0.343-0.343-1.486 5.143-5.143-5.029-5.143 0.229-1.486 1.6-0.343 5.143 5.029 5.143-5.029 1.486 0.343 0.343 1.486-5.257 5.143 5.143 5.143z"></path>
</symbol>
<symbol id="icon_play" viewBox="0 0 32 32">
<title>icon_play</title>
<path class="path1" fill="var(--color1, #fff)" d="M16 0c-8.838 0-16 7.162-16 16s7.162 16 16 16 16-7.162 16-16-7.162-16-16-16zM12.952 22.095v-12.114l9.143 6.095-9.143 6.019z"></path>
</symbol>
<symbol id="icon_zoom" viewBox="0 0 32 32">
<title>icon_zoom</title>
<path class="path1" fill="var(--color1, #fff)" d="M15.238 11.429c-2.133 0-3.81 1.752-3.81 3.81 0 2.133 1.752 3.81 3.81 3.81 2.133 0 3.81-1.752 3.81-3.81 0-2.133-1.676-3.81-3.81-3.81zM16 0c-8.838 0-16 7.162-16 16s7.162 16 16 16c8.838 0 16-7.162 16-16s-7.162-16-16-16zM22.857 22.857h-1.219l-3.276-3.2c-0.914 0.61-1.981 0.99-3.124 0.99-2.971 0-5.333-2.362-5.333-5.333s2.362-5.333 5.333-5.333c2.971 0 5.333 2.362 5.333 5.333 0 1.143-0.381 2.21-0.99 3.124l3.276 3.2v1.219z"></path>
</symbol>
<symbol id="icon-logo" viewBox="0 0 23 32">
<title>logo</title>
<path class="path1" fill="var(--color2, #ebf4ff)" d="M17.92 11.695c0.582 0.058 1.047-0.407 1.105-0.989s-0.407-1.047-0.931-1.105c-0.582-0.058-1.047 0.407-1.105 0.989s0.349 1.047 0.931 1.105zM15.127 11.985c0.698 0.058 1.338-0.64 1.396-1.513s-0.465-1.629-1.164-1.687c-0.698-0.058-1.338 0.64-1.396 1.513s0.465 1.629 1.164 1.687zM19.956 12.8c0.524 0.058 0.931-0.349 0.989-0.873s-0.349-0.931-0.873-0.989c-0.524-0.058-0.931 0.349-0.989 0.873 0 0.465 0.407 0.931 0.873 0.989zM21.585 14.080c0.465 0.058 0.815-0.291 0.873-0.756s-0.291-0.815-0.756-0.873c-0.465-0.058-0.815 0.291-0.873 0.756 0 0.407 0.349 0.815 0.756 0.873zM22.633 14.371c-0.407 0-0.698 0.233-0.756 0.64 0 0.407 0.233 0.698 0.64 0.756 0.407 0 0.698-0.233 0.756-0.64s-0.291-0.756-0.64-0.756zM16.407 12.742c0 0 0.058 0 0 0 0 0 0 0 0 0zM16.407 12.742c-1.28-0.116-2.036 0.524-2.095 1.629-0.058 0.873 0.116 1.804 0.873 2.735 0.989 1.164 2.676 2.385 2.56 3.956-0.058 0.873-0.291 2.502-1.571 3.665-1.629 1.455-2.56 2.793-2.676 4.305s0.815 2.851 2.56 2.967c1.745 0.116 2.851-1.047 2.967-3.025s0.175-3.84 1.222-5.76c0.989-1.92 1.513-2.793 1.804-3.433s0.291-1.105 0.349-1.513c0.116-1.338-0.815-2.385-1.338-2.967-1.455-1.629-2.909-2.444-4.655-2.56zM5.527 2.793c0.582 0 1.047-0.465 1.047-1.047s-0.465-1.047-1.047-1.047c-0.582 0-0.989 0.465-0.989 1.047s0.465 1.047 0.989 1.047zM8.32 0c-0.698 0-1.28 0.756-1.28 1.629s0.582 1.629 1.28 1.629c0.698 0 1.28-0.756 1.28-1.629s-0.582-1.629-1.28-1.629zM3.433 3.724c0.524 0 0.931-0.407 0.931-0.931s-0.407-0.931-0.931-0.931c-0.524 0-0.931 0.407-0.931 0.931s0.407 0.931 0.931 0.931zM1.687 4.887c0.465 0 0.815-0.349 0.815-0.815s-0.349-0.815-0.815-0.815c-0.407 0-0.756 0.349-0.756 0.815s0.349 0.815 0.756 0.815zM1.396 5.818c0-0.407-0.291-0.698-0.698-0.698s-0.698 0.291-0.698 0.698c0 0.407 0.291 0.698 0.698 0.698 0.349 0 0.698-0.291 0.698-0.698zM7.855 8.378c0.873-0.873 1.105-1.745 1.105-2.676 0-1.105-0.64-1.745-1.978-1.745-1.745 0-3.258 0.698-4.829 2.211-0.524 0.582-1.513 1.571-1.513 2.851 0 0.465 0 0.873 0.233 1.571 0.233 0.64 0.64 1.571 1.513 3.549s0.815 3.84 0.815 5.818c0 1.978 0.989 3.258 2.735 3.2 1.745 0 2.735-1.222 2.735-2.793s-0.815-2.967-2.385-4.48c-1.222-1.222-1.338-2.851-1.338-3.724 0.116-1.571 1.862-2.676 2.909-3.782zM6.865 3.956c-0.116 0-0.058 0 0 0v0zM6.982 3.956c0 0-0.058 0-0.116 0 0.058 0 0.058 0 0.116 0z"></path>
</symbol>
<symbol id="icon-next_slide" viewBox="0 0 32 32">
<title>next_slide</title>
<path class="path1" fill="var(--color1, #fff)" d="M16 0c-8.838 0-16 7.162-16 16s7.162 16 16 16 16-7.162 16-16-7.314-16-16-16zM15.543 22.857l-2.895-0.457 5.333-6.552-5.638-6.552 2.895-0.457 5.79 7.010-5.486 7.010z"></path>
</symbol>
<symbol id="icon-prev_slide" viewBox="0 0 32 32">
<title>prev_slide</title>
<path class="path1" fill="var(--color1, #fff)" d="M0 16c0 8.838 7.162 16 16 16s16-7.162 16-16-7.162-16-16-16c-8.838 0-16 7.162-16 16zM10.667 15.848l5.79-7.010 2.895 0.457-5.486 6.705 5.333 6.552-2.743 0.305-5.79-7.010z"></path>
</symbol>

<symbol id="icon-cross" viewBox="0 0 32 32">
<title>icon-cross</title>
<path class="path1" d="M32 4.042l-4.041-4.042-11.959 11.96-11.959-11.96-4.042 4.041 11.96 11.96-11.96 11.959 4.041 4.041 11.96-11.96 11.959 11.96 4.041-4.041-11.959-11.959z"></path>
</symbol>
<symbol id="icon-menu" viewBox="0 0 33 32">
<title>icon-menu</title>
<path class="path1" d="M0 0h33.377v5.771h-33.377v-5.771z"></path>
<path class="path2" d="M0 13.115h33.377v5.771h-33.377v-5.771z"></path>
<path class="path3" d="M0 26.229h33.377v5.771h-33.377v-5.771z"></path>
</symbol>




</defs>
</svg>
