<svg style="position: absolute; width: 0; height: 0; overflow: hidden;" version="1.1" xmlns="http://www.w3.org/2000/svg" xmlns:xlink="http://www.w3.org/1999/xlink">
<defs>
<symbol id="icon-text-welcome" viewBox="0 0 134 32">
<title>text-welcome</title>
<path class="path1" d="M19.742 0h5.491l-0.862 32h-10.348l-1.407-13.212-1.407 13.212h-10.393l-0.816-32h5.446l0.454 26.467h0.59l3.404-26.467h5.401l3.494 26.467h0.545l0.408-26.467z"></path>
<path class="path2" d="M42.433 26.467v5.533h-14.886v-32h14.886v5.486h-9.44v7.725h7.534v5.486h-7.534v7.771h9.44z"></path>
<path class="path3" d="M57.635 26.467v5.533h-13.025v-32h5.446v26.467h7.579z"></path>
<path class="path4" d="M69.208 20.205l5.491-1.28v9.692c0 1.829-1.543 3.383-3.358 3.383h-8.17c-1.861 0-3.358-1.554-3.358-3.383v-25.234c0-1.875 1.498-3.383 3.358-3.383h8.169c1.815 0 3.358 1.508 3.358 3.383v6.491l-5.491 1.28v-5.669h-3.949v20.982h3.949v-6.262z"></path>
<path class="path5" d="M89.492 0c1.815 0 3.358 1.508 3.358 3.383v25.234c0 1.829-1.543 3.383-3.358 3.383h-8.17c-1.86 0-3.358-1.554-3.358-3.383v-25.234c0-1.874 1.498-3.383 3.358-3.383h8.17zM87.359 5.486h-3.949v20.982h3.949v-20.982z"></path>
<path class="path6" d="M110.684 0h5.401v32h-5.446v-15.726l-2.179 8.137h-5.31l-2.133-8.137v15.726h-5.446v-32h5.401l4.856 15.451 4.857-15.451z"></path>
<path class="path7" d="M133.693 26.467v5.533h-14.886v-32h14.886v5.486h-9.44v7.725h7.534v5.486h-7.534v7.771h9.44z"></path>
</symbol>
<symbol id="icon-text-tothegorgeous" viewBox="0 0 283 32">
<title>text-tothegorgeous</title>
<path class="path1" d="M70.839 15.999l-0.224 0.255c-1.498 1.625-3.346 2.422-5.004 2.454l3.124-5.386c2.008-3.473 0.159-6.756-2.964-6.756-2.55 0-4.526 1.019-6.438 4.335l-1.625 2.836-1.358 2.322-0.17 0.196c-2.39 2.773-4.716 4.971-6.183 4.971-0.733 0-1.148-0.51-0.382-1.816l7.107-12.398h2.709l0.956-1.594h-2.741l3.124-5.416h-3.315l-3.124 5.418h-2.996l-0.956 1.594h3.027l-6.661 11.537c-1.402 2.454-0.414 4.718 2.262 4.718 1.925 0 4.053-1.449 6.1-3.414-0.006 4.224 5.864 5.049 9.452 0.512h0.733c1.976 0 5.099-1.211 6.789-3.219-0.221-0.447-0.795-0.956-1.241-1.148zM63.764 16.222h-0.159c-1.084 0-1.944 0.892-1.944 1.977 0 0.413 0.127 0.796 0.319 1.116l-0.032 0.063c-1.562 2.678-5.354 2.167-3.378-1.274l2.517-4.367 1.594-2.709c2.327-3.952 5.513-2.391 3.506 1.052l-2.422 4.142z"></path>
<path class="path2" d="M116.726 15.999l-0.224 0.255c-2.391 2.773-5.45 4.971-7.776 4.971-2.040 0-3.251-1.274-1.721-3.952l0.319-0.574c2.135 0.892 6.151 0.478 8.637-3.824l0.478-0.829c1.784-3.059 0.064-5.354-2.645-5.354-2.678 0-4.813 1.402-6.215 3.824l-3.217 5.518-0.192 0.219c-2.391 2.773-4.716 4.971-6.183 4.971-0.733 0-1.148-0.51-0.383-1.816l4.782-8.38c1.433-2.518 0.064-4.335-1.785-4.335-1.433 0-2.964 0.797-4.621 2.517l5.291-9.209h-3.315l-9.247 16.041-0.186 0.213c-2.39 2.773-4.716 4.971-6.183 4.971-0.733 0-1.148-0.51-0.382-1.816l7.107-12.398h2.709l0.956-1.594h-2.741l3.125-5.416h-3.315l-3.124 5.418h-2.995l-0.956 1.594h3.027l-6.661 11.537c-1.402 2.454-0.414 4.718 2.262 4.718 1.343 0 2.786-0.707 4.231-1.801l-0.853 1.481h3.346l5.035-8.763c5.099-6.407 7.362-5.578 5.927-3.124l-4.302 7.49c-1.402 2.454-0.414 4.718 2.262 4.718 1.972 0 4.159-1.522 6.251-3.561 0.159 2.064 1.83 3.561 4.487 3.561 3.76 0 7.489-2.932 10.231-6.12-0.221-0.448-0.795-0.957-1.241-1.149zM110.416 11.346c1.913-3.282 5.291-2.741 3.315 0.702l-0.478 0.829c-1.593 2.709-3.729 2.645-4.972 2.199l2.135-3.73z"></path>
<path class="path3" d="M237.564 15.999l-0.222 0.255c-1.212 1.433-2.678 2.709-3.985 3.601 1.052-3.155 0.829-7.999 2.869-12.238l-2.486-1.338c-1.37 1.881-4.366 6.215-7.362 9.721 0 0 0.001 0.001 0.001 0.001l-0.222 0.253c-2.39 2.773-4.716 4.971-6.183 4.971-0.733 0-1.147-0.51-0.382-1.816l7.075-12.398h-3.314l-5.896 10.294c-2.517 2.293-4.462 3.57-5.098 3.282-0.829-0.35 0-1.593 0.414-2.293l6.47-11.282h-3.314l-5.196 8.992-0.219 0.251c-1.499 1.625-3.346 2.422-5.004 2.454l3.123-5.386c2.008-3.473 0.161-6.756-2.964-6.756-2.549 0-4.525 1.019-6.437 4.335l-1.626 2.836-1.357 2.321-0.172 0.197c-2.39 2.773-5.45 4.971-7.776 4.971-2.040 0-3.252-1.274-1.721-3.952l0.319-0.574c2.135 0.892 6.151 0.478 8.637-3.824l0.478-0.829c1.784-3.059 0.064-5.354-2.645-5.354-2.678 0-4.813 1.402-6.215 3.824l-3.214 5.517-0.194 0.22c-2.741 3.156-5.098 5.194-7.713 6.309l7.426-12.684h-1.945c0-1.37-1.402-3.187-3.473-3.187-1.784 0-4.27 1.402-5.674 3.824l-3.178 5.487c-0.002-0.001-0.006-0.003-0.008-0.004l-0.222 0.255c-2.39 2.773-4.718 4.971-6.183 4.971-0.733 0-1.147-0.51-0.383-1.816l3.315-5.801c1.147-2.008 0.605-3.187-0.479-4.494l-1.849-2.231c-0.478-0.605-0.478-1.275 0.191-1.913l-1.721-1.881c-1.881 1.689-2.040 3.57-0.86 5.099l0.287 0.383c-1.465 2.072-3.441 4.876-5.609 7.426 0 0 0.001 0.001 0.001 0.001l-0.221 0.253c-1.499 1.625-3.346 2.422-5.004 2.454l3.123-5.386c2.008-3.473 0.161-6.756-2.964-6.756-2.549 0-4.525 1.019-6.437 4.335l-1.626 2.836-1.359 2.326-0.168 0.193c-2.742 3.156-5.099 5.194-7.713 6.309l7.426-12.684h-1.944c0-1.37-1.402-3.187-3.475-3.187-1.784 0-4.27 1.402-5.673 3.824l-4.653 8.032c-1.402 2.454-0.414 4.718 2.262 4.718 0.924 0 2.040-0.415 3.156-1.116l-0.924 1.561c-4.462 1.37-7.267 3.187-7.267 5.673 0 3.188 4.876 3.856 7.267-0.222l2.518-4.367c2.652-0.827 5.25-2.386 7.947-4.961-0.024 4.242 5.859 5.075 9.452 0.531h0.733c1.976 0 5.099-1.211 6.789-3.219 0 0-0.001-0.001-0.001-0.001 1.593-1.848 2.836-3.505 5.48-7.105l0.446 0.541c0.414 0.542 0.574 1.211 0.191 1.881l-3.506 6.088c-1.404 2.454-0.415 4.718 2.262 4.718 1.68 0 3.515-1.104 5.315-2.69-0.054 1.54 0.973 2.69 2.875 2.69 0.924 0 2.040-0.415 3.156-1.116l-0.924 1.561c-4.462 1.37-7.266 3.187-7.266 5.673 0 3.188 4.876 3.856 7.266-0.222l2.517-4.367c2.701-0.842 5.346-2.451 8.097-5.11 0.148 2.075 1.823 3.582 4.491 3.582 2.699 0 5.378-1.513 7.691-3.543-0.131 4.339 5.829 5.226 9.454 0.642h0.733c1.038 0 2.389-0.341 3.685-0.948-0.891 2.303-0.070 3.85 1.826 3.85 1.816 0 3.855-1.658 5.449-3.188-0.319 1.784 0.733 3.188 2.836 3.188 2.742 0 5.896-2.932 8.638-6.12 0 0-0.001-0.001-0.001-0.001 1.88-2.167 3.536-4.493 4.716-6.054-1.307 3.441-0.607 9.624-3.761 9.624-1.116 0-1.561-1.211-1.561-1.211l-2.072 1.084c0 0 0.605 2.679 3.633 2.679 0.319 0 0.607-0.032 0.924-0.065 0.032 0 0.064-0.031 0.096-0.031 3.378-0.446 6.724-3.123 9.21-6.024-0.193-0.509-0.767-1.019-1.244-1.147zM189.987 11.346c1.913-3.282 5.29-2.741 3.314 0.702l-0.478 0.829c-1.594 2.709-3.729 2.645-4.972 2.199l2.136-3.73zM126.699 28.618c-0.702 1.243-1.816 1.053-1.816 0.16 0-0.86 0.797-1.849 3.314-2.836l-1.498 2.675zM128.229 21.226c-0.733 0-1.148-0.51-0.382-1.816l4.621-8.064c1.784-3.092 5.323-2.295 3.697 0.702l-2.517 4.398c-2.009 3.22-4.017 4.781-5.419 4.781zM148.592 16.222h-0.161c-1.084 0-1.944 0.892-1.944 1.977 0 0.413 0.127 0.796 0.319 1.116l-0.032 0.063c-1.561 2.678-5.354 2.167-3.378-1.274l2.517-4.367 1.593-2.709c2.328-3.952 5.513-2.391 3.507 1.052l-2.421 4.142zM169.432 28.618c-0.702 1.243-1.817 1.053-1.817 0.16 0-0.86 0.797-1.849 3.315-2.836l-1.498 2.675zM170.961 21.226c-0.733 0-1.147-0.51-0.383-1.816l4.622-8.064c1.784-3.092 5.322-2.295 3.697 0.702l-2.518 4.398c-2.008 3.22-4.017 4.781-5.418 4.781zM203.658 16.222h-0.161c-1.084 0-1.944 0.892-1.944 1.977 0 0.413 0.127 0.796 0.319 1.116l-0.032 0.063c-1.561 2.678-5.354 2.167-3.378-1.274l2.517-4.367 1.593-2.709c2.328-3.952 5.513-2.391 3.507 1.052l-2.421 4.142z"></path>
<path class="path4" d="M0 12.48h32.008v2.167h-32.008v-2.167z"></path>
<path class="path5" d="M251.263 12.48h32.009v2.167h-32.009v-2.167z"></path>
</symbol>
<symbol id="icon-text-sedona" viewBox="0 0 184 32">
<title>text-sedona</title>
<path class="path1" d="M17.831 8.716c-1.433-1.194-3.264-1.99-5.174-1.99-1.433 0-3.343 0.836-3.343 2.507 0 1.752 2.11 2.428 3.463 2.865l1.99 0.597c4.179 1.234 7.403 3.343 7.403 8.199 0 2.985-0.717 6.050-3.104 8.080-2.348 1.99-5.493 2.826-8.517 2.826-3.781 0-7.483-1.274-10.547-3.423l3.343-6.288c1.95 1.711 4.259 3.104 6.925 3.104 1.831 0 3.781-0.915 3.781-3.025 0-2.189-3.065-2.945-4.736-3.423-4.895-1.393-8.12-2.667-8.12-8.478 0-6.090 4.338-10.069 10.348-10.069 3.025 0 6.726 0.955 9.393 2.468l-3.105 6.050z"></path>
<path class="path2" d="M36.823 7.602v5.015h8.796v6.607h-8.796v5.173h9.274v6.607h-17.075v-30.010h17.075v6.607h-9.274z"></path>
<path class="path3" d="M51.894 0.995h11.065c8.358 0 15.244 6.567 15.244 15.005s-6.925 15.005-15.244 15.005h-11.065v-30.010zM59.695 24.398h1.751c4.657 0 8.637-2.547 8.637-8.398 0-5.373-3.542-8.398-8.557-8.398h-1.831v16.796z"></path>
<path class="path4" d="M115.031 15.443c0 9.711-6.965 16.557-16.597 16.557s-16.597-6.846-16.597-16.557c0-9.075 7.96-15.443 16.597-15.443s16.597 6.368 16.597 15.443zM89.956 15.482c0 5.174 3.821 8.955 8.478 8.955s8.478-3.781 8.478-8.955c0-4.139-3.821-7.92-8.478-7.92s-8.478 3.781-8.478 7.92z"></path>
<path class="path5" d="M119.188 0.995h7.801l14.289 18.348h0.079v-18.348h7.801v30.010h-7.801l-14.289-18.388h-0.079v18.388h-7.801v-30.010z"></path>
<path class="path6" d="M163.339 25.791l-2.069 5.214h-8.279l11.542-30.010h8.517l11.303 30.010h-8.318l-1.95-5.214h-10.746zM168.792 10.268h-0.080l-3.224 9.552h6.488l-3.184-9.552z"></path>
</symbol>
<symbol id="icon-text-becausecanyon" viewBox="0 0 118 32">
<title>text-becausecanyon</title>
<path class="path1" d="M13.47 6.876c3.087-1.044 3.322-4.91 0.279-4.91-0.838 0-1.838 0.588-2.528 1.793l-4.116 7.114c-0.191 0.338-0.382 0.617-0.588 0.867-1.058-1.455-0.75-3.63 0.735-4.586l-0.617-0.779c-3.204 2.043-2.264 7.937 3.087 7.937 4.572 0 6.688-5.482 3.748-7.437zM9.692 13.138c-0.911 0-1.632-0.206-2.205-0.529 0.265-0.309 0.529-0.691 0.764-1.088l2.572-4.454 0.412 0.044c3.586 0.75 2.161 6.027-1.543 6.027zM11.338 6.17l1.235-2.116c1.117-1.925 2.543-0.794 1.779 0.646-0.588 1.102-1.455 1.441-3.013 1.47z"></path>
<path class="path2" d="M26.4 11.818c-0.254 0.906 0.231 1.643 1.268 1.643 0.617 0 1.382-0.397 2.116-1 0.074 0.588 0.544 1 1.323 1 0.814 0 1.707-0.562 2.577-1.353-0.169 0.825 0.218 1.353 0.971 1.353 0.838 0 1.779-0.764 2.513-1.47-0.147 0.823 0.338 1.47 1.308 1.47 1.264 0 2.719-1.352 3.983-2.822-0.010-0.020-0.028-0.041-0.041-0.061 0.845-0.982 1.59-2.026 2.123-2.732-0.603 1.588-0.279 4.439-1.735 4.439-0.514 0-0.72-0.559-0.72-0.559l-0.956 0.5c0 0 0.279 1.235 1.675 1.235 0.147 0 0.279-0.015 0.426-0.029 0.015 0 0.029-0.014 0.044-0.014 1.123-0.148 2.237-0.832 3.202-1.703 0.023 1.006 0.804 1.746 2.074 1.746 1.734 0 3.454-1.352 4.719-2.822-0.103-0.206-0.368-0.441-0.573-0.529l-0.103 0.118c-1.102 1.278-2.513 2.293-3.586 2.293-0.941 0-1.499-0.588-0.794-1.823l0.147-0.265c0.985 0.412 2.837 0.22 3.983-1.764l0.22-0.382c0.823-1.411 0.029-2.47-1.22-2.47-1.235 0-2.22 0.647-2.866 1.764l-1.484 2.547c-0.014-0.005-0.029-0.015-0.042-0.019l-0.103 0.118c-0.559 0.661-1.235 1.249-1.837 1.661 0.485-1.455 0.382-3.689 1.323-5.644l-1.146-0.617c-0.632 0.867-2.014 2.867-3.395 4.483 0.013 0.019 0.030 0.037 0.044 0.056l-0.054 0.062c-1.102 1.278-2.175 2.293-2.852 2.293-0.338 0-0.529-0.235-0.177-0.838l3.263-5.718h-1.529l-2.719 4.748c-1.161 1.058-2.058 1.646-2.352 1.514-0.382-0.162 0-0.735 0.191-1.058l2.984-5.203h-1.529l-2.433 4.21c-0.039-0.024-0.079-0.050-0.116-0.065l-0.103 0.118c-1.102 1.278-2.175 2.293-2.852 2.293-0.338 0-0.529-0.235-0.177-0.838l2.47-4.322h-0.867c0.059-0.647-0.603-1.544-1.602-1.544-0.823 0-1.97 0.647-2.616 1.764l-1.55 2.675c-0.079-0.061-0.159-0.115-0.233-0.147l-0.103 0.118c-1.102 1.278-2.513 2.293-3.586 2.293-0.941 0-1.499-0.588-0.794-1.823l1.573-2.734c0.882-1.514 2.44-1.264 1.528 0.323l-0.22 0.382h1.249l0.22-0.382c0.823-1.411 0.029-2.47-1.22-2.47-1.235 0-2.22 0.647-2.866 1.764l-1.52 2.607c-0.048-0.031-0.095-0.059-0.14-0.079l-0.103 0.118c-1.102 1.278-2.513 2.293-3.586 2.293-0.941 0-1.499-0.588-0.794-1.823l0.147-0.265c0.985 0.412 2.837 0.22 3.983-1.764l0.22-0.382c0.823-1.411 0.029-2.47-1.22-2.47-1.235 0-2.22 0.647-2.866 1.764l-1.602 2.748c-0.956 1.632-0.132 3.131 1.675 3.131 1.347 0 2.683-0.816 3.806-1.868-0.040 1.067 0.752 1.868 2.072 1.868 1.248 0.002 2.488-0.699 3.557-1.64zM49.789 7.964c0.882-1.514 2.44-1.264 1.528 0.323l-0.22 0.382c-0.735 1.249-1.72 1.22-2.293 1.014l0.985-1.719zM27.947 11.683l2.131-3.719c0.823-1.426 2.455-1.058 1.705 0.323l-1.191 2.087c-0.926 1.455-1.838 2.146-2.469 2.146-0.338 0-0.529-0.235-0.177-0.838zM18.199 7.964c0.882-1.514 2.44-1.264 1.528 0.323l-0.22 0.382c-0.735 1.249-1.72 1.22-2.293 1.014l0.985-1.719z"></path>
<path class="path3" d="M70.026 13.461c1.735 0 3.454-1.352 4.718-2.822-0.103-0.206-0.367-0.441-0.573-0.529l-0.103 0.118c-1.102 1.278-2.513 2.293-3.586 2.293-0.941 0-1.499-0.588-0.794-1.823l0.147-0.265c0.985 0.412 2.837 0.22 3.983-1.764l0.22-0.382c0.823-1.411 0.029-2.47-1.22-2.47-1.234 0-2.219 0.647-2.866 1.764l-1.489 2.554c-0.015-0.008-0.031-0.019-0.046-0.026l-0.103 0.118c-1.102 1.278-2.175 2.293-2.851 2.293-0.338 0-0.529-0.235-0.177-0.838l2.205-3.866c0.662-1.161 0.029-1.999-0.823-1.999-0.662 0-1.367 0.368-2.131 1.161l2.44-4.248h-1.529l-4.312 7.48c-0.060-0.042-0.12-0.077-0.175-0.101l-0.103 0.118c-1.102 1.278-2.175 2.293-2.852 2.293-0.338 0-0.529-0.235-0.177-0.838l3.278-5.718h1.249l0.441-0.735h-1.264l1.441-2.499h-1.529l-1.441 2.499h-1.382l-0.441 0.735h1.396l-3.072 5.322c-0.647 1.132-0.191 2.175 1.044 2.175 0.76 0 1.588-0.49 2.403-1.199l-0.606 1.052h1.544l2.322-4.042c2.352-2.954 3.395-2.572 2.734-1.441l-1.984 3.455c-0.647 1.132-0.191 2.175 1.044 2.175 0.929 0 1.96-0.731 2.944-1.701 0.045 0.983 0.823 1.701 2.074 1.701zM71.261 7.964c0.882-1.514 2.44-1.264 1.529 0.323l-0.22 0.382c-0.735 1.249-1.72 1.22-2.293 1.014l0.985-1.719z"></path>
<path class="path4" d="M116.385 10.11l-0.103 0.118c-1.102 1.278-2.175 2.293-2.851 2.293-0.338 0-0.529-0.235-0.177-0.838l5.174-8.952h-1.529l-2.249 3.881c-0.264-0.426-0.764-0.794-1.396-0.794-0.823 0-1.97 0.647-2.617 1.764l-1.496 2.582c-0.032-0.019-0.065-0.041-0.096-0.054l-0.103 0.118c-1.102 1.278-2.175 2.293-2.851 2.293-0.338 0-0.529-0.235-0.177-0.838l2.205-3.866c0.662-1.161 0.029-1.999-0.823-1.999-0.662 0-1.352 0.353-2.117 1.147l0.574-1h-1.529l-2.443 4.227c-0.050-0.033-0.099-0.062-0.145-0.082l-0.103 0.118c-1.102 1.278-2.175 2.293-2.851 2.293-0.338 0-0.529-0.235-0.177-0.838l2.469-4.322h-0.867c0.059-0.647-0.603-1.544-1.602-1.544-0.823 0-1.97 0.647-2.617 1.764l-1.478 2.551-0.083 0.095c-1.102 1.278-2.175 2.293-2.851 2.293-0.338 0-0.529-0.235-0.177-0.838l1.528-2.675c0.529-0.926 0.279-1.47-0.22-2.073l-0.852-1.029c-0.22-0.279-0.22-0.588 0.088-0.882l-0.794-0.867c-0.867 0.779-0.941 1.646-0.397 2.352l0.133 0.177c-0.676 0.956-1.588 2.249-2.587 3.425 0.030 0.044 0.066 0.087 0.104 0.13-1.26 1.448-2.33 2.385-3.532 2.898l1.94-3.322h-1.528l-0.162 0.265c-0.809 1.426-1.735 2.44-2.925 2.44-1.044 0-1.234-1.044-0.323-2.602l0.426-0.75c0.279 0.044 0.559 0.074 0.867 0.074 5.438 0 8.070-7.276 3.278-7.276-0.838 0-1.838 0.588-2.528 1.793l-2.381 4.101c-0.897-0.47-1.367-1.323-1.367-2.175 0-0.705 0.324-1.411 0.985-1.925l-0.5-0.897c-1.087 0.779-1.572 1.823-1.572 2.852 0 1.22 0.691 2.396 1.925 3.043l-0.456 0.794c-1.073 1.852-0.882 3.91 1.279 3.91 0.647 0 1.191-0.191 1.661-0.485l-0.397 0.691c-2.073 0.632-3.351 1.47-3.351 2.616 0 1.47 2.249 1.779 3.351-0.103l1.176-2.014c1.587-0.5 3.145-1.587 4.821-3.528-0.024-0.047-0.058-0.096-0.095-0.144 0.679-0.798 1.255-1.567 2.406-3.134l0.206 0.25c0.191 0.25 0.265 0.559 0.088 0.867l-1.617 2.806c-0.647 1.132-0.191 2.175 1.044 2.175 0.769 0 1.608-0.501 2.432-1.224-0.018 0.703 0.463 1.224 1.335 1.224 0.617 0 1.382-0.397 2.116-1 0.074 0.588 0.544 1 1.323 1 0.732 0 1.528-0.455 2.314-1.123l-0.563 0.975h1.543l2.337-4.072c2.337-2.925 3.381-2.543 2.719-1.411l-1.984 3.455c-0.647 1.132-0.191 2.175 1.044 2.175 0.813 0 1.703-0.559 2.572-1.349-0.081 0.766 0.405 1.349 1.328 1.349 0.617 0 1.382-0.397 2.116-1 0.074 0.588 0.544 1 1.323 1 1.264 0 2.719-1.352 3.983-2.822-0.103-0.206-0.368-0.441-0.574-0.529zM84.962 4.407c0.456-0.779 0.956-1.117 1.382-1.117 2.426 0 0.72 4.939-3.278 4.939h-0.309l2.205-3.822zM81.714 15.93c-0.323 0.573-0.838 0.485-0.838 0.074 0-0.397 0.353-0.852 1.529-1.308l-0.691 1.235zM97.712 10.374c-0.926 1.455-1.838 2.146-2.47 2.146-0.338 0-0.529-0.235-0.177-0.838l2.131-3.719c0.823-1.426 2.455-1.058 1.705 0.323l-1.19 2.088zM112.505 10.286c-0.926 1.514-1.867 2.234-2.513 2.234-0.338 0-0.529-0.235-0.177-0.838l2.131-3.719c0.823-1.426 2.455-1.058 1.705 0.323h0.014l-1.161 2z"></path>
<path class="path5" d="M65.316 24.62l-0.103 0.118c-1.102 1.279-2.175 2.293-2.852 2.293-0.338 0-0.529-0.235-0.177-0.838l2.205-3.866c0.661-1.161 0.029-1.999-0.823-1.999-0.661 0-1.352 0.353-2.116 1.147l0.573-0.999h-1.529l-2.464 4.262c-0.066-0.048-0.133-0.091-0.195-0.117l-0.103 0.118c-0.691 0.749-1.544 1.117-2.308 1.132l1.441-2.484c0.926-1.603 0.073-3.116-1.367-3.116-1.176 0-2.087 0.47-2.969 1.999l-0.75 1.308-0.655 1.121c-0.047-0.031-0.094-0.059-0.138-0.078l-0.103 0.118c-1.264 1.455-2.337 2.395-3.542 2.91l4.189-7.173h-1.528l-2.705 4.704c-1.176 1.087-2.087 1.69-2.381 1.558-0.382-0.161 0-0.735 0.191-1.058l2.984-5.203h-1.529l-2.439 4.22c-0.046-0.029-0.091-0.057-0.133-0.075l-0.103 0.118c-1.102 1.279-2.175 2.293-2.852 2.293-0.338 0-0.529-0.235-0.177-0.838l2.205-3.866c0.661-1.161 0.029-1.999-0.823-1.999-0.661 0-1.352 0.353-2.116 1.147l0.573-0.999h-1.529l-2.443 4.226c-0.050-0.033-0.099-0.062-0.145-0.082l-0.103 0.118c-1.102 1.279-2.175 2.293-2.852 2.293-0.338 0-0.529-0.235-0.177-0.838l2.47-4.321h-0.867c0.059-0.647-0.603-1.544-1.602-1.544-0.823 0-1.97 0.647-2.616 1.764l-1.579 2.725c-0.104-0.095-0.225-0.168-0.335-0.198l-0.103 0.118c-1.102 1.279-2.455 2.293-3.969 2.293-1.044 0-1.675-1.044-0.764-2.602l0.426-0.75c0.279 0.044 0.559 0.074 0.867 0.074 1.632 0 3.484-0.838 4.689-2.94 0.426-0.749 0.617-1.455 0.617-2.058 0-1.382-0.897-2.278-2.028-2.278-0.838 0-1.838 0.588-2.528 1.793l-2.381 4.101c-0.897-0.47-1.367-1.323-1.367-2.175 0-0.705 0.323-1.411 0.985-1.925l-0.5-0.897c-1.088 0.779-1.573 1.822-1.573 2.852 0 1.22 0.691 2.396 1.925 3.043l-0.455 0.794c-1.073 1.852-0.441 3.91 1.72 3.91 1.709 0 2.964-0.761 4.018-1.762-0.333 0.96 0.151 1.762 1.233 1.762 0.617 0 1.382-0.397 2.116-0.999 0.074 0.588 0.544 0.999 1.323 0.999 0.732 0 1.528-0.455 2.314-1.122l-0.564 0.975h1.544l2.337-4.072c2.337-2.925 3.381-2.543 2.719-1.412l-1.984 3.453c-0.647 1.132-0.191 2.175 1.044 2.175 0.823 0 1.726-0.574 2.605-1.38-0.183 0.841 0.205 1.38 0.967 1.38 0.735 0 1.573-0.617 2.264-1.235l-0.838 1.441c-2.073 0.617-3.366 1.47-3.366 2.616 0 1.47 2.249 1.779 3.351-0.103l1.176-2.014c1.278-0.402 2.538-1.195 3.854-2.497-0.211 2.135 2.633 2.622 4.347 0.454h0.338c0.558 0 1.314-0.211 1.996-0.586l-1.027 1.777h1.544l2.337-4.072c2.337-2.925 3.381-2.543 2.719-1.412l-1.984 3.455c-0.647 1.132-0.191 2.175 1.044 2.175 1.264 0 2.719-1.352 3.983-2.822-0.103-0.206-0.368-0.441-0.574-0.529zM27.273 18.917c0.455-0.779 0.956-1.117 1.382-1.117 0.573 0 0.838 0.382 0.838 0.941 0 1.426-1.734 3.998-4.116 3.998h-0.309l2.205-3.822zM32.655 24.884c-0.926 1.455-1.838 2.146-2.47 2.146-0.338 0-0.529-0.235-0.177-0.838l2.131-3.719c0.823-1.426 2.455-1.058 1.705 0.324l-1.19 2.087zM44.284 30.44c-0.324 0.574-0.838 0.485-0.838 0.074 0-0.397 0.368-0.852 1.543-1.308l-0.705 1.234zM54.573 24.723h-0.074c-0.5 0-0.897 0.412-0.897 0.912 0 0.191 0.059 0.367 0.147 0.514l-0.014 0.029c-0.72 1.235-2.47 0.999-1.558-0.588l1.161-2.014 0.735-1.249c1.073-1.823 2.543-1.102 1.617 0.485l-1.117 1.911z"></path>
<path class="path6" d="M100.748 25.149c-0.088-0.235-0.353-0.47-0.573-0.529l-0.103 0.118c-0.559 0.661-1.235 1.249-1.838 1.661 0.485-1.455 0.382-3.689 1.323-5.644l-1.147-0.617c-0.632 0.867-2.014 2.867-3.395 4.483 0.002 0.004 0.006 0.007 0.008 0.010-0.006-0.003-0.013-0.008-0.019-0.010l-0.103 0.118c-1.102 1.279-2.175 2.293-2.852 2.293-0.338 0-0.661-0.338-0.661-1.029v-0.632c1.073 0.132 2.205-0.574 2.925-1.823l0.412-0.705c1.426-2.44-0.897-3.249-2.455-1.822l2.175-3.778h-1.529l-4.359 7.564c-0.093-0.079-0.191-0.147-0.28-0.185l-0.103 0.118c-1.102 1.279-2.513 2.293-3.586 2.293-0.941 0-1.499-0.588-0.794-1.823l1.573-2.734c0.882-1.514 2.44-1.264 1.529 0.324l-0.22 0.382h1.249l0.22-0.382c0.823-1.411 0.029-2.47-1.22-2.47-1.234 0-2.22 0.647-2.866 1.764l-1.504 2.581c-0.032-0.019-0.065-0.041-0.095-0.054l-0.103 0.118c-1.102 1.279-2.175 2.293-2.851 2.293-0.338 0-0.529-0.235-0.177-0.838l3.263-5.718h-1.529l-2.719 4.748c-1.162 1.058-2.058 1.646-2.352 1.514-0.382-0.161 0-0.735 0.191-1.058l2.984-5.203h-1.529l-2.969 5.137c-0.331 0.301-0.669 0.57-0.987 0.787 0.485-1.455 0.382-3.689 1.323-5.644l-1.147-0.617c-0.632 0.867-4.16 5.542-5.542 7.159 0.132 0.191 0.353 0.382 0.574 0.529 0.867-1 3.777-4.748 4.322-5.468-0.603 1.587-0.279 4.439-1.735 4.439-0.514 0-0.72-0.559-0.72-0.559l-0.955 0.5c0 0 0.279 1.235 1.675 1.235 0.147 0 0.279-0.015 0.426-0.029 0.014 0 0.029-0.015 0.044-0.015 0.776-0.103 1.548-0.46 2.27-0.959-0.005 0.622 0.37 1.003 1.011 1.003 0.838 0 1.778-0.764 2.513-1.47-0.147 0.823 0.338 1.47 1.308 1.47 0.949 0 2.007-0.763 3.010-1.765 0.014 1.015 0.796 1.765 2.074 1.765 1.241 0 2.473-0.693 3.537-1.625l-0.852 1.478h1.543l1.749-3.043v1.22c0 1.308 0.25 1.97 1.484 1.97 1.264 0 2.719-1.352 3.984-2.822-0.002-0.004-0.007-0.009-0.009-0.014 0.006 0.005 0.013 0.009 0.019 0.014 0.867-0.999 1.632-2.073 2.175-2.793-0.603 1.587-0.279 4.439-1.734 4.439-0.514 0-0.72-0.559-0.72-0.559l-0.955 0.5c0 0 0.279 1.235 1.675 1.235 0.147 0 0.279-0.015 0.426-0.029 0.014 0 0.029-0.015 0.044-0.015 1.558-0.206 3.101-1.441 4.247-2.778zM90.595 23.944l0.441-0.764c1.764-2.455 2.969-1.779 2.426-0.852l-0.735 1.264c-0.456 0.794-1.794 1.352-2.132 0.353z"></path>
<path class="path7" d="M100.688 26.192c-0.499 0-0.882 0.397-0.882 0.897s0.382 0.882 0.882 0.882c0.5 0 0.897-0.382 0.897-0.882s-0.397-0.897-0.897-0.897z"></path>
<path class="path8" d="M100.762 25.59h1.543l4.792-8.349h-1.528z"></path>
<path class="path9" d="M2.318 2.781c0 0.118-0.023 0.237-0.068 0.354s-0.114 0.225-0.204 0.321c-0.091 0.096-0.202 0.172-0.334 0.232s-0.28 0.089-0.443 0.089c-0.182 0-0.357-0.034-0.525-0.102s-0.311-0.166-0.429-0.293c-0.1-0.118-0.177-0.259-0.232-0.423s-0.082-0.336-0.082-0.518c0-0.345 0.061-0.663 0.184-0.954s0.297-0.55 0.525-0.777c0.1-0.1 0.213-0.193 0.341-0.28s0.248-0.159 0.362-0.218c0.113-0.059 0.211-0.106 0.293-0.143s0.132-0.059 0.15-0.068l0.545 0.804c-0.1 0.036-0.211 0.084-0.334 0.143s-0.239 0.132-0.347 0.218c-0.109 0.086-0.2 0.189-0.273 0.307s-0.114 0.255-0.123 0.409c0.264 0 0.495 0.077 0.695 0.232s0.3 0.377 0.3 0.668zM5.488 2.781c0 0.118-0.023 0.237-0.068 0.354s-0.114 0.225-0.204 0.32c-0.091 0.096-0.202 0.173-0.334 0.232s-0.28 0.089-0.443 0.089c-0.182 0-0.357-0.034-0.525-0.102s-0.311-0.166-0.429-0.293c-0.1-0.118-0.177-0.259-0.232-0.423s-0.082-0.336-0.082-0.518c0-0.345 0.061-0.663 0.184-0.954s0.297-0.55 0.525-0.777c0.1-0.1 0.213-0.193 0.341-0.279s0.247-0.159 0.361-0.218c0.114-0.059 0.211-0.107 0.293-0.143s0.132-0.059 0.15-0.068l0.545 0.804c-0.1 0.036-0.211 0.084-0.334 0.143s-0.239 0.132-0.348 0.218-0.2 0.189-0.272 0.307c-0.073 0.118-0.114 0.254-0.123 0.409 0.264 0 0.495 0.077 0.695 0.232s0.3 0.377 0.3 0.667z"></path>
<path class="path10" d="M112.363 26.538c0-0.119 0.023-0.237 0.068-0.355s0.114-0.225 0.205-0.32c0.091-0.096 0.202-0.173 0.334-0.232s0.28-0.089 0.443-0.089c0.182 0 0.357 0.034 0.525 0.102s0.311 0.166 0.429 0.294c0.1 0.118 0.177 0.259 0.232 0.422s0.082 0.336 0.082 0.518c0 0.345-0.061 0.663-0.184 0.954s-0.297 0.55-0.525 0.777c-0.1 0.1-0.213 0.193-0.341 0.279-0.127 0.087-0.247 0.159-0.361 0.218s-0.211 0.107-0.293 0.143-0.131 0.059-0.15 0.069l-0.545-0.805c0.1-0.036 0.211-0.084 0.334-0.143s0.239-0.132 0.348-0.218c0.109-0.087 0.2-0.189 0.272-0.307s0.114-0.254 0.123-0.409c-0.264 0-0.495-0.077-0.695-0.232s-0.299-0.377-0.299-0.667zM109.192 26.538c0-0.119 0.023-0.237 0.069-0.355s0.113-0.225 0.204-0.32 0.203-0.173 0.334-0.232c0.132-0.059 0.279-0.089 0.443-0.089 0.182 0 0.357 0.034 0.525 0.102s0.311 0.166 0.429 0.294c0.1 0.118 0.177 0.259 0.232 0.422s0.081 0.336 0.081 0.518c0 0.345-0.061 0.663-0.184 0.954s-0.297 0.55-0.525 0.777c-0.1 0.1-0.213 0.193-0.341 0.279s-0.247 0.159-0.361 0.218c-0.113 0.059-0.211 0.107-0.293 0.143s-0.132 0.059-0.15 0.069l-0.546-0.805c0.1-0.036 0.212-0.084 0.334-0.143s0.239-0.132 0.347-0.218c0.109-0.087 0.2-0.189 0.273-0.307s0.114-0.254 0.123-0.409c-0.263 0-0.495-0.077-0.696-0.232-0.199-0.154-0.299-0.377-0.299-0.667z"></path>
</symbol>
<symbol id="icon-logo-htmlacademy" viewBox="0 0 25 32">
<title>logo-htmlacademy</title>
<path class="path1" d="M12.351 0l-12.351 1.378v23.17l12.351 7.417v0.035l12.353-7.452v-23.073l-12.353-1.475zM22.755 23.425l-10.403 6.269v-6.991l-6.029-2.706v-0.020l6.033-2.666v-0.019h0.002v0.010l6.035 2.664v-1.168l-6.035-2.663v0.010h-0.002v-0.003l-6.034 2.667v-1.169l5.537-2.447-1.312-0.588-4.225 1.868v-1.168l2.914-1.288-1.312-0.588-1.602 0.708v-1.168l0.291-0.128-3.531-1.586 9.271-4.021v-5.262l10.403 1.251v20.202z"></path>
<path class="path2" d="M18.392 16.462l-4.232-1.872-1.314 0.589 5.546 2.451z"></path>
<path class="path3" d="M18.392 14.125l-1.604-0.708-1.314 0.587 2.918 1.289z"></path>
</symbol>
<symbol id="icon-logo-glukhanko" viewBox="0 0 28 32">
<title>logo-glukhanko</title>
<path class="path1" d="M0 0h27.793v32l-13.896-5.145-13.896 5.145v-32zM21.554 19.138c-0.258 0-0.544-0.006-0.857-0.019-0.313-0.015-0.543-0.055-0.69-0.124-0.241-0.11-0.418-0.278-0.535-0.502-0.114-0.225-0.173-0.526-0.173-0.913 0-0.421 0.019-1.295 0.059-2.628 0.037-1.33 0.058-2.479 0.058-3.45 0-0.918-0.156-1.664-0.47-2.234-0.314-0.572-0.736-1.006-1.268-1.308-0.558-0.309-1.185-0.513-1.881-0.611-0.694-0.099-1.46-0.15-2.292-0.15-0.601 0-1.253 0.073-1.957 0.213-0.704 0.142-1.326 0.34-1.867 0.6-0.549 0.249-1.014 0.565-1.396 0.946s-0.573 0.813-0.573 1.293c0 0.557 0.186 1.012 0.556 1.359 0.37 0.345 0.917 0.52 1.639 0.52 0.509 0 0.884-0.046 1.13-0.141 0.245-0.095 0.467-0.228 0.664-0.4 0.149-0.127 0.259-0.303 0.336-0.52 0.077-0.219 0.117-0.401 0.117-0.548 0-0.327-0.061-0.664-0.182-1.017-0.12-0.352-0.194-0.613-0.219-0.785 0.155-0.111 0.358-0.221 0.612-0.329 0.252-0.108 0.569-0.162 0.946-0.162 0.421 0 0.76 0.096 1.018 0.284 0.258 0.189 0.446 0.42 0.567 0.696 0.111 0.241 0.184 0.536 0.219 0.889 0.033 0.35 0.051 0.634 0.051 0.85v1.234c-0.501 0.241-1.29 0.513-2.374 0.82-1.083 0.305-2.012 0.599-2.785 0.882-0.404 0.154-0.776 0.322-1.117 0.504-0.338 0.182-0.637 0.407-0.896 0.684-0.283 0.3-0.503 0.646-0.657 1.036-0.156 0.391-0.232 0.867-0.232 1.426 0 0.972 0.352 1.751 1.058 2.341 0.704 0.589 1.556 0.882 2.553 0.882 0.671 0 1.192-0.047 1.567-0.141 0.374-0.095 0.765-0.238 1.168-0.424 0.309-0.148 0.6-0.324 0.871-0.528 0.271-0.206 0.553-0.456 0.845-0.748h0.076c0.181 0.584 0.518 1.032 1.015 1.346 0.497 0.313 1.273 0.468 2.327 0.468 0.573 0 1.118-0.068 1.631-0.205s0.958-0.288 1.337-0.45v-0.94zM15.114 17.745c-0.232 0.283-0.501 0.521-0.806 0.714-0.306 0.196-0.695 0.29-1.17 0.29-0.448 0-0.825-0.149-1.13-0.449-0.307-0.302-0.46-0.789-0.46-1.458 0-0.508 0.090-0.95 0.272-1.324 0.181-0.373 0.431-0.682 0.75-0.922 0.3-0.233 0.689-0.454 1.162-0.665 0.473-0.211 0.952-0.397 1.435-0.561l-0.052 4.375z"></path>
</symbol>
<symbol id="icon-youtube" viewBox="0 0 46 32">
<title>icon-youtube</title>
<path class="path1" d="M39.147 0h-32.674c-3.562 0-6.473 2.911-6.473 6.473v19.054c0 3.562 2.911 6.473 6.473 6.473h32.674c3.562 0 6.473-2.911 6.473-6.473v-19.054c-0.002-3.562-2.913-6.473-6.473-6.473zM16.065 23.728v-15.455l15.455 7.727-15.455 7.729z"></path>
</symbol>
<symbol id="icon-twitter" viewBox="0 0 38 32">
<title>icon-twitter</title>
<path class="path1" d="M24.624 0.334c3.789-1.056 6.709 0.576 8.042 2.51 1.515-0.491 2.994-1.026 4.522-1.506-0.009 1.835-1.174 3.226-1.927 3.771 1.536 0.36 2.931-1.050 2.931-1.050-0.382 2.132-2.259 3.81-3.516 4.315-0.522 14.386-7.141 23.91-22.657 23.62-1.174 0 0.168 0-1.004 0-0.921 0-9.362-0.982-11.014-4.022 5.109 0.419 8.753-0.899 10.552-2.51-2.158-0.639-6.026-1.013-6.7-6.287 0.79 0.229 1.272 0.487 2.68 0.255-2.697-1.824-5.692-3.354-5.526-8.042 0.642 0.696 2.401 1.141 3.014 1.006-1.582-0.513-4.43-7.16-2.010-10.554 4.088 3.954 8.398 7.684 16.082 8.042 0.471-4.888 2.556-8.162 6.532-9.548z"></path>
</symbol>
<symbol id="icon-plus" viewBox="0 0 32 32">
<title>icon-plus</title>
<path class="path1" d="M32 12.907h-12.907v-12.907h-6.186v12.907h-12.907v6.186h12.907v12.907h6.186v-12.907h12.907z"></path>
</symbol>
<symbol id="icon-minus" viewBox="0 0 166 32">
<title>icon-minus</title>
<path class="path1" d="M0 0h165.542v32h-165.542v-32z"></path>
</symbol>
<symbol id="icon-menu" viewBox="0 0 33 32">
<title>icon-menu</title>
<path class="path1" d="M0 0h33.377v5.771h-33.377v-5.771z"></path>
<path class="path2" d="M0 13.115h33.377v5.771h-33.377v-5.771z"></path>
<path class="path3" d="M0 26.229h33.377v5.771h-33.377v-5.771z"></path>
</symbol>
<symbol id="icon-house" viewBox="0 0 33 32">
<title>icon-house</title>
<path class="path1" d="M13.050 19.394v9.51h7.077v-10.588h-7.077v1.078zM18.828 27.604h-4.479v-7.989h4.479v7.989z"></path>
<path class="path2" d="M32.122 17.445l0.918-0.919-4.383-4.385v-11.934h-6.11v5.822l-6.027-6.030-16.52 16.527 0.919 0.919 3.464-3.464v16.719h-1.742v1.3h28.253v-1.3h-2.238v-16.72l3.465 3.464zM23.847 1.507h3.511v9.335l-3.511-3.512v-5.823zM27.358 30.7h-21.676v-18.019l10.838-10.838 10.838 10.838v18.019z"></path>
<path class="path3" d="M13.161 12.036c0 1.893 1.535 3.428 3.428 3.428s3.428-1.535 3.428-3.428-1.535-3.428-3.428-3.428-3.428 1.535-3.428 3.428zM16.588 9.838c1.214 0 2.198 0.984 2.198 2.198s-0.984 2.198-2.198 2.198c-1.214 0-2.198-0.984-2.198-2.198s0.985-2.198 2.198-2.198z"></path>
<path class="path4" d="M7.479 18.315h1.327v1.742h-1.327v-1.742z"></path>
<path class="path5" d="M10.105 18.315h1.327v1.742h-1.327v-1.742z"></path>
<path class="path6" d="M7.479 20.969h1.327v1.742h-1.327v-1.742z"></path>
<path class="path7" d="M10.105 20.969h1.327v1.742h-1.327v-1.742z"></path>
<path class="path8" d="M21.606 18.315h1.327v1.742h-1.327v-1.742z"></path>
<path class="path9" d="M24.232 18.315h1.327v1.742h-1.327v-1.742z"></path>
<path class="path10" d="M21.606 20.969h1.327v1.742h-1.327v-1.742z"></path>
<path class="path11" d="M24.232 20.969h1.327v1.742h-1.327v-1.742z"></path>
</symbol>
<symbol id="icon-gift" viewBox="0 0 27 32">
<title>icon-gift</title>
<path class="path1" d="M25.642 9.474h-10.402c5.797-2.904 6.26-4.737 6.047-5.762-0.488-1.669-2.389-2.957-4.198-2.276-2.337 0.879-2.995 4.374-3.628 6.9-0.807-2.556-1.588-5.817-3.414-7.469-0.529-0.479-1.299-0.953-2.419-0.854-1.69 0.15-4.114 2.266-3.13 4.624 0.945 2.264 4.065 3.695 6.118 4.837h-9.407c-0.664 0-1.208 0.544-1.208 1.208v4.767c0 0.664 0.543 1.208 1.208 1.208h0.115v15.342h24.275v-15.342h0.044c0.665 0 1.208-0.543 1.208-1.208v-4.767c-0-0.664-0.544-1.208-1.209-1.208zM17.8 2.503c0.882-0.13 2.091 0.547 2.206 1.351 0.165 1.16-1.427 2.213-2.134 2.703-1.059 0.734-2.068 1.113-3.059 1.707 0.372-1.553 1.070-5.478 2.988-5.762zM8.196 6.7c-0.933-0.625-2.746-1.866-2.703-3.272 0.047-1.514 2.41-2.766 3.699-1.636 1.618 1.42 2.397 4.676 2.988 6.971-1.363-0.647-2.655-1.173-3.984-2.063zM10.703 30.748h-8.128v-14.091h8.128v14.091zM10.703 15.379h-9.425v-4.626h9.425v4.626zM14.966 15.379v15.369h-3.010v-19.995h3.010v4.626zM24.346 30.748h-8.128v-14.091h8.128v14.091zM25.571 15.379h-9.354v-4.626h9.354v4.626z"></path>
</symbol>
<symbol id="icon-facebook" viewBox="0 0 15 32">
<title>icon-facebook</title>
<path class="path1" d="M10.6 5.669c1.35 0 2.701 0 4.051 0 0-1.89 0-3.779 0-5.669-1.62 0-3.243 0-4.861 0-5.302 0.306-7.188 4.032-6.498 10.328h-3.291v5.943h3.309c0 5.243 0 10.486 0 15.73 2.16 0 4.323 0 6.481 0 0-5.243 0-10.486 0-15.73h4.826v-5.943h-4.841c-0.037-1.765-0.063-4.063 0.824-4.659z"></path>
</symbol>
<symbol id="icon-cross" viewBox="0 0 32 32">
<title>icon-cross</title>
<path class="path1" d="M32 4.042l-4.041-4.042-11.959 11.96-11.959-11.96-4.042 4.041 11.96 11.96-11.96 11.959 4.041 4.041 11.96-11.96 11.959 11.96 4.041-4.041-11.959-11.959z"></path>
</symbol>
<symbol id="icon-calendar" viewBox="0 0 29 32">
<title>icon-calendar</title>
<path class="path1" d="M24.88 2.92h-3.038v-2.92h-2.92v2.92h-8.822v-2.92h-2.92v2.92h-3.040c-2.278 0-4.139 1.862-4.139 4.139v20.801c0 2.278 1.862 4.139 4.139 4.139h20.741c2.278 0 4.139-1.862 4.139-4.139v-20.801c0-2.278-1.862-4.139-4.139-4.139zM26.1 27.861c0 0.661-0.559 1.219-1.219 1.219h-20.741c-0.66 0-1.219-0.558-1.219-1.219v-20.801c0-0.661 0.559-1.219 1.219-1.219h20.741c0.66 0 1.219 0.558 1.219 1.219v20.801z"></path>
<path class="path2" d="M7.179 10.16h2.92v2.92h-2.92v-2.92z"></path>
<path class="path3" d="M18.922 10.16h2.92v2.92h-2.92v-2.92z"></path>
<path class="path4" d="M13.051 10.16h2.92v2.92h-2.92v-2.92z"></path>
<path class="path5" d="M7.179 16h2.92v2.92h-2.92v-2.92z"></path>
<path class="path6" d="M18.922 16h2.92v2.92h-2.92v-2.92z"></path>
<path class="path7" d="M13.051 16h2.92v2.92h-2.92v-2.92z"></path>
<path class="path8" d="M7.179 21.817h2.92v2.92h-2.92v-2.92z"></path>
<path class="path9" d="M18.922 21.817h2.92v2.92h-2.92v-2.92z"></path>
<path class="path10" d="M13.051 21.817h2.92v2.92h-2.92v-2.92z"></path>
</symbol>
<symbol id="icon-burger" viewBox="0 0 35 32">
<title>icon-burger</title>
<path class="path1"  d="M33.371 21.366h-31.398c-1.085 0-1.973 0.888-1.973 1.973v1.603c0 1.085 0.888 1.973 1.973 1.973h0.444v0.481c0 2.532 2.071 4.604 4.604 4.604h21.303c2.532 0 4.604-2.072 4.604-4.604v-0.481h0.444c1.085 0 1.973-0.888 1.973-1.973v-1.603c0-1.085-0.888-1.973-1.973-1.973zM31.535 27.396c0 1.771-1.44 3.212-3.212 3.212h-21.303c-1.771 0-3.212-1.441-3.212-3.212v-0.481h27.727v0.481zM33.952 24.941c0 0.315-0.266 0.581-0.581 0.581h-31.398c-0.315 0-0.581-0.266-0.581-0.581v-1.603c0-0.315 0.266-0.581 0.581-0.581h31.398c0.315 0 0.581 0.266 0.581 0.581v1.603z"></path>
<path class="path2"  d="M7.5 17.567l2.54 1.856 2.542-1.856 2.543 1.856 2.542-1.856 2.543 1.856 2.543-1.856 2.542 1.856 2.543-1.857 2.546 1.856 2.956-2.155-0.82-1.125-2.135 1.557-2.546-1.856-2.543 1.856-2.542-1.856-2.543 1.856-2.543-1.856-2.542 1.856-2.543-1.856-2.541 1.856-2.54-1.857-2.542 1.857-2.131-1.556-0.821 1.124 2.953 2.156z"></path>
<path class="path3"  d="M3.847 14.429h29.048c0.020-0.283 0.033-0.568 0.033-0.856 0-0.18-0.007-0.358-0.015-0.536-0.317-7.247-7.017-13.037-15.24-13.037s-14.923 5.789-15.24 13.037c-0.008 0.178-0.015 0.357-0.015 0.536 0 0.288 0.013 0.572 0.033 0.856h1.397zM17.672 1.392c7.439 0 13.527 5.176 13.848 11.645h-27.696c0.321-6.469 6.408-11.645 13.848-11.645z"></path>
<path class="path4"  d="M18.6 6.98c0 0.513-0.416 0.928-0.928 0.928s-0.928-0.416-0.928-0.928c0-0.513 0.416-0.928 0.928-0.928s0.928 0.416 0.928 0.928z"></path>
<path class="path5"  d="M14.888 4.679c0 0.513-0.416 0.928-0.928 0.928s-0.928-0.416-0.928-0.928c0-0.513 0.416-0.928 0.928-0.928s0.928 0.416 0.928 0.928z"></path>
<path class="path6"  d="M22.313 4.679c0 0.513-0.416 0.928-0.928 0.928s-0.928-0.416-0.928-0.928c0-0.513 0.416-0.928 0.928-0.928s0.928 0.416 0.928 0.928z"></path>
</symbol>
<symbol id="icon-form-logo-triangle" viewBox="0 0 62 32">
<title>form-logo-triangle</title>
<path class="path1" d="M61.94 0h-61.94l26.711 30.025c2.343 2.633 6.176 2.633 8.519 0l26.711-30.025z"></path>
</symbol>

</defs>
</svg>
